# xmcd
#
# Track frame offsets: 
#        150
#        13705
#        24236
#        42395
#        51657
#        68393
#        83949
#        95627
#        108421
#        127487
#        143985
#        160592
#        175209
#        187366
#        199089
#        210803
#        222801
#        239814
#        251754
#        261435
#        272539
#        283999
#
# Disc length: 3919 seconds
#
# Revision: 0
# Processed by: cddbd v1.5.2PL0 Copyright (c) Steve Scherf et al.
# Submitted via: ExactAudioCopy v1.1
#
DISCID=580f4d16
DTITLE=Various Artist - 50 Jaar Nederpop - CD 1 - 60's
DYEAR=2008
DGENRE=Pop
TTITLE0=Shocking Blue - Venus
TTITLE1=Q65 - The Life I Live
TTITLE2=George Baker Selection - Little Green Bag
TTITLE3=The Blue Diamonds - Little Ship
TTITLE4=The Cats - Lea
TTITLE5=Cuby and Blizzards - Window Of My Eyes
TTITLE6=Peter En Zijn Rockets - Kom Van Dat Dak Af
TTITLE7=Ekseption - Air
TTITLE8=Liesbeth List and Ramses Shaffy - Pastorale
TTITLE9=Armand - Ben Ik Te Min
TTITLE10=Outsiders - Monkey On Your Back
TTITLE11=The Shoes - Don't You Cry For A Girl
TTITLE12=BZN - Everyday I Have To Cry
TTITLE13=After Tea - Not Just A Flower In Your Hair
TTITLE14=Brainbox - Down Man
TTITLE15=The Buffoons - Tomorrow Is Another Day
TTITLE16=The Free - Keep In Touch
TTITLE17=The Hunters - Russian Spy And I
TTITLE18=The Motions - Wasted Words
TTITLE19=Rob De Nijs - Ritme Van De Regen
TTITLE20=Ro - d-ys - Take Her Home
TTITLE21=Tielman Brothers - Rock Little Baby Of Man
EXTD=
EXTT0=
EXTT1=
EXTT2=
EXTT3=
EXTT4=
EXTT5=
EXTT6=
EXTT7=
EXTT8=
EXTT9=
EXTT10=
EXTT11=
EXTT12=
EXTT13=
EXTT14=
EXTT15=
EXTT16=
EXTT17=
EXTT18=
EXTT19=
EXTT20=
EXTT21=
PLAYORDER=
